<svg xmlns="http://www.w3.org/2000/svg" viewBox="0 0 500 500">
    <g id="freepik--background-simple--inject-7">
        <path
            d="M471.34,263.11C488,156.69,399.2,49.42,282.63,36.1c-1.45-.17-2.9-.32-4.36-.47-81.45-8.09-155.9,54.13-177.19,101.58s-77,92.6-56.35,180.56S121.48,452.58,253,466.45s155.79-23.74,190.7-105.92A420.16,420.16,0,0,0,471.34,263.11Z"
            style="fill:#3572EF"></path>
        <path
            d="M471.34,263.11C488,156.69,399.2,49.42,282.63,36.1c-1.45-.17-2.9-.32-4.36-.47-81.45-8.09-155.9,54.13-177.19,101.58s-77,92.6-56.35,180.56S121.48,452.58,253,466.45s155.79-23.74,190.7-105.92A420.16,420.16,0,0,0,471.34,263.11Z"
            style="fill:#fff;opacity:0.8"></path>
    </g>
    <g id="freepik--Clouds--inject-7">
        <path
            d="M137.51,274.18c-25.66,0-45.23-.35-46.07-1.4a.64.64,0,0,1-.11-.5c.56-2.27,3.26-9.73,14.2-10.51a31,31,0,0,1,8.64.57c2.94.55,3.82.72,5.42-2.47l.22-.44c3-6,7.48-15.05,20.52-14.31a34.42,34.42,0,0,1,11.74,3c4.34,1.79,6.32,2.6,8.76-2.69,4.81-10.43,12.68-20.42,34.58-15.47,21.15,4.77,26.49,27.56,27.1,30.48,2.39.63,5.27-.88,8.58-2.61,5.19-2.71,11.06-5.77,17.31-1.75,10.24,6.58,10.36,15.94,10.36,16.34a.51.51,0,0,1-.49.5C241,273.2,180.68,274.18,137.51,274.18Zm-45.13-2c6.73,2,120.66.49,165.35-.28-.18-2-1.41-9.57-9.87-15-5.76-3.71-11.36-.78-16.3,1.8-3.49,1.82-6.79,3.54-9.64,2.59a.5.5,0,0,1-.34-.39c0-.25-4.55-25.06-26.39-30-21.14-4.77-28.57,4.35-33.45,14.92-2.85,6.16-5.71,5-10.05,3.2a33,33,0,0,0-11.42-2.91c-12.37-.68-16.7,8-19.56,13.75l-.23.45c-1.93,3.86-3.46,3.57-6.5,3a30,30,0,0,0-8.38-.56C96,263.45,93.19,269.34,92.38,272.19Z"
            style="fill:#263238"></path>
        <path
            d="M342.1,326.3c-16.79,0-29.37-.24-29.94-1a.59.59,0,0,1-.11-.48c.36-1.46,2.1-6.26,9.11-6.76a19.83,19.83,0,0,1,5.49.36c1.84.35,2.27.43,3.22-1.45l.14-.28c1.78-3.58,4.78-9.6,13.09-9.12a21.66,21.66,0,0,1,7.46,1.9c2.78,1.14,3.82,1.56,5.28-1.61,3.06-6.63,8.07-13,22-9.85C391,301,394.53,315,395,317.28c1.42.31,3.17-.61,5.16-1.65,3.15-1.64,7.06-3.69,11.09-1.1,6.54,4.2,6.61,10.2,6.61,10.45a.51.51,0,0,1-.49.5C399,325.8,366.22,326.3,342.1,326.3Zm-29-1.59c5.18,1.06,64.06.46,103.71-.22a12.79,12.79,0,0,0-6.11-9.12c-3.54-2.27-7-.46-10.08,1.14-2.24,1.17-4.35,2.27-6.22,1.65a.51.51,0,0,1-.33-.39c0-.16-2.85-15.66-16.49-18.74-13.19-3-17.82,2.7-20.86,9.29-1.87,4.05-3.84,3.23-6.57,2.11a20.69,20.69,0,0,0-7.13-1.82c-7.67-.42-10.37,5-12.15,8.56l-.14.28c-1.22,2.45-2.26,2.38-4.29,2a18.2,18.2,0,0,0-5.24-.35C315.5,319.5,313.69,322.9,313.13,324.71Z"
            style="fill:#263238"></path>
        <path
            d="M94.6,108.47c-16.79,0-29.37-.24-29.94-1a.59.59,0,0,1-.11-.48c.36-1.46,2.1-6.26,9.11-6.76a19.8,19.8,0,0,1,5.49.36c1.84.35,2.27.43,3.22-1.45l.14-.28c1.78-3.58,4.75-9.59,13.1-9.12a21.89,21.89,0,0,1,7.45,1.9c2.78,1.14,3.82,1.57,5.28-1.61,3.07-6.63,8.07-13,22-9.85,13.18,3,16.7,17,17.19,19.24,1.42.29,3.16-.62,5.17-1.66,3.14-1.64,7.05-3.69,11.08-1.1,6.54,4.2,6.61,10.2,6.61,10.45a.5.5,0,0,1-.49.5C151.51,108,118.72,108.47,94.6,108.47Zm-29-1.59c5.18,1.06,64.06.46,103.71-.22a12.79,12.79,0,0,0-6.11-9.12c-3.54-2.27-7-.46-10.08,1.15-2.24,1.16-4.35,2.26-6.22,1.64a.51.51,0,0,1-.33-.39c0-.15-2.85-15.66-16.49-18.74-13.19-3-17.82,2.71-20.86,9.29-1.87,4-3.84,3.23-6.57,2.11a20.69,20.69,0,0,0-7.13-1.82c-7.68-.42-10.37,5-12.15,8.56l-.14.28C82,102.07,81,102,79,101.62a18.57,18.57,0,0,0-5.24-.35C68,101.68,66.19,105.07,65.63,106.88Z"
            style="fill:#263238"></path>
    </g>
    <g id="freepik--Plants--inject-7">
        <path
            d="M336.53,462.36a.4.4,0,0,0,.51-.13,48.88,48.88,0,0,0,2.75-47.58.39.39,0,0,0-.52-.17.37.37,0,0,0-.17.51,48.09,48.09,0,0,1-2.71,46.82.38.38,0,0,0,.11.53Z"
            style="fill:#263238"></path>
        <path
            d="M336.34,445.87c4.62.91,4.4,8.5,4.21,8.55-.29.75-.59,1.5-.92,2.25.07-1.08-1.27-3.38-4.06-5.57S332,444.84,336.34,445.87Z"
            style="fill:#263238"></path>
        <path
            d="M349.54,449.11c4.5,1.05.9,6.31-2.82,6.26s-6.22.61-7,1.33c.38-.72.74-1.46,1.07-2.2C340.89,454.63,345.25,448.27,349.54,449.11Z"
            style="fill:#263238"></path>
        <path
            d="M337.43,439c4.7.13,5.77,7.58,5.6,7.64-.15.79-.32,1.57-.51,2.35-.12-1.07-1.84-3.08-5-4.76S333,438.69,337.43,439Z"
            style="fill:#263238"></path>
        <path
            d="M351,440c4.61.29,2,6-1.71,6.57s-6,1.62-6.68,2.45c.24-.76.46-1.53.67-2.3C343.4,446.77,346.6,439.85,351,440Z"
            style="fill:#263238"></path>
        <path
            d="M337.34,432c4.66-.65,7,6.48,6.8,6.57,0,.79-.05,1.58-.1,2.38-.3-1-2.34-2.71-5.7-3.83S332.88,432.5,337.34,432Z"
            style="fill:#263238"></path>
        <path
            d="M350.87,430.72c4.59-.49,2.93,5.59-.59,6.74s-5.66,2.59-6.17,3.51c.11-.78.19-1.57.26-2.37C344.53,438.69,346.53,431.35,350.87,430.72Z"
            style="fill:#263238"></path>
        <path
            d="M336.09,425.17c4.49-1.42,8,5.25,7.81,5.35.12.79.21,1.57.29,2.36-.47-.95-2.75-2.27-6.25-2.82S331.78,426.39,336.09,425.17Z"
            style="fill:#263238"></path>
        <path
            d="M349.21,421.62c4.45-1.24,3.83,5,.55,6.77s-5.15,3.49-5.5,4.48c0-.79-.07-1.58-.13-2.37C344.3,430.56,345.05,423,349.21,421.62Z"
            style="fill:#263238"></path>
        <path
            d="M333.69,418.58c4.19-2.15,8.75,3.89,8.62,4,.25.76.47,1.52.68,2.29-.62-.86-3.1-1.79-6.64-1.75S329.64,420.51,333.69,418.58Z"
            style="fill:#263238"></path>
        <path
            d="M346,412.86c4.18-2,4.65,4.38,1.71,6.63s-4.49,4.33-4.67,5.37c-.16-.78-.33-1.56-.53-2.33C342.72,422.57,342.15,414.91,346,412.86Z"
            style="fill:#263238"></path>
        <path d="M340.94,418.16c.12,0-.52-6.8-2.4-10.06s-4.62-2.71-5.4-1.3.51,3.63,2,5.22S341,418.07,340.94,418.16Z"
            style="fill:#263238"></path>
        <path
            d="M340.82,418.39h0a.26.26,0,0,0,.29-.07v0a.16.16,0,0,0,0-.2c.1-1.27-.81-7.34-2.43-10.14a4.23,4.23,0,0,0-3.52-2.54,2.64,2.64,0,0,0-2.33,1.25c-1.09,1.9,1.26,4.7,2,5.52,1.54,1.42,5.47,5.6,5.78,6.05A.24.24,0,0,0,340.82,418.39Zm-4.28-12.1a4.5,4.5,0,0,1,1.77,1.93c1.49,2.57,2.18,7.35,2.35,9.18-.36-.41-.93-1-1.83-2-1.16-1.23-2.7-2.81-3.54-3.6-1.41-1.52-2.66-3.62-1.93-4.9a2.12,2.12,0,0,1,1.87-1A2.85,2.85,0,0,1,336.54,406.29Z"
            style="fill:#263238"></path>
        <path
            d="M341.83,465.88a.47.47,0,0,0,.63.1,58.84,58.84,0,0,0,26.15-51.11.47.47,0,1,0-.93,0,57.9,57.9,0,0,1-25.74,50.3.47.47,0,0,0-.13.64Z"
            style="fill:#263238"></path>
        <path
            d="M349.64,447.61c4.65,3.25.72,11.51.49,11.47-.69.69-1.39,1.38-2.11,2,.6-1.16.24-4.35-1.77-8.12S345.33,444.35,349.64,447.61Z"
            style="fill:#263238"></path>
        <path
            d="M362.62,457.6c4.45,3.35-2.07,7.39-6.15,5.53-4.05-1.69-7.16-2.35-8.39-1.95.76-.61,1.51-1.25,2.24-1.9C350.4,459.48,358.29,454.58,362.62,457.6Z"
            style="fill:#263238"></path>
        <path
            d="M354.19,440.53c5.12,2.43,2.69,11.16,2.46,11.15-.54.79-1.11,1.57-1.69,2.34.37-1.23-.54-4.29-3.17-7.66S349.39,438.05,354.19,440.53Z"
            style="fill:#263238"></path>
        <path
            d="M368.66,448.2c4.94,2.56-.77,7.58-5.08,6.42-4.27-1-7.43-1.14-8.56-.55q1-1.1,1.86-2.22C357,452,363.88,446,368.66,448.2Z"
            style="fill:#263238"></path>
        <path
            d="M357.47,432.83c5.45,1.54,4.53,10.53,4.31,10.55-.4.86-.82,1.72-1.27,2.57.16-1.27-1.26-4.12-4.42-7S352.32,431.19,357.47,432.83Z"
            style="fill:#263238"></path>
        <path
            d="M373,438c5.3,1.69.52,7.58-3.93,7.15s-7.49.1-8.51.87c.5-.82,1-1.65,1.45-2.49C362.16,443.68,367.93,436.56,373,438Z"
            style="fill:#263238"></path>
        <path
            d="M359.43,424.67c5.63.62,6.21,9.65,6,9.7-.25.92-.52,1.83-.82,2.74-.06-1.28-1.94-3.85-5.53-6.15S354.07,423.92,359.43,424.67Z"
            style="fill:#263238"></path>
        <path
            d="M375.62,427.13c5.5.79,1.77,7.42-2.69,7.73s-7.37,1.35-8.24,2.27c.36-.88.69-1.78,1-2.68C365.86,434.6,370.36,426.61,375.62,427.13Z"
            style="fill:#263238"></path>
        <path
            d="M360,416.24c5.66-.34,7.75,8.53,7.55,8.61-.09.95-.21,1.9-.35,2.85-.27-1.25-2.55-3.48-6.48-5.15S354.58,416.4,360,416.24Z"
            style="fill:#263238"></path>
        <path
            d="M376.36,415.92c5.56-.15,3,7.09-1.35,8.14s-7.05,2.6-7.75,3.65c.2-.93.39-1.88.55-2.82C368,425,371.09,416.31,376.36,415.92Z"
            style="fill:#263238"></path>
        <path
            d="M368.18,419.3c.1.11,2.73-7.75,2.24-12.26s-3.78-5.24-5.33-4.06-1.2,4.25-.36,6.72C365.76,412.07,368.29,419.23,368.18,419.3Z"
            style="fill:#263238"></path>
        <path
            d="M367.93,419.49l0,0a.32.32,0,0,0,.36.06l0,0a.23.23,0,0,0,.14-.2c.73-1.34,2.67-8.48,2.24-12.36-.17-2.19-1.13-3.83-2.64-4.51a3.15,3.15,0,0,0-3.17.25c-2.14,1.56-.9,5.8-.47,7.06,1,2.31,3.3,8.83,3.43,9.48A.31.31,0,0,0,367.93,419.49Zm1.16-15.42a5.41,5.41,0,0,1,1,3c.39,3.56-1.17,9.16-1.87,11.26-.2-.62-.54-1.57-1.06-3.06-.69-1.91-1.61-4.41-2.16-5.69-.81-2.36-1.17-5.29.26-6.34a2.56,2.56,0,0,1,2.54-.18A3.49,3.49,0,0,1,369.09,404.07Z"
            style="fill:#263238"></path>
        <path
            d="M385.68,464.28a.23.23,0,0,0,.28-.07,21,21,0,0,0,1.53-22.93.23.23,0,0,0-.29-.09.19.19,0,0,0-.1.25A20.65,20.65,0,0,1,385.61,464a.17.17,0,0,0,.06.26Z"
            style="fill:#263238"></path>
        <path
            d="M385.58,456.33c2.55.43,2.43,4.1,2.33,4.12q-.24.54-.51,1.08c0-.52-.71-1.63-2.25-2.68S383.17,455.83,385.58,456.33Z"
            style="fill:#263238"></path>
        <path
            d="M392.88,457.89c2.48.51.49,3-1.56,3a8.47,8.47,0,0,0-3.89.64c.21-.35.41-.7.59-1.06C388.1,460.55,390.5,457.48,392.88,457.89Z"
            style="fill:#263238"></path>
        <path
            d="M386.18,453c2.6.06,3.19,3.65,3.1,3.69-.09.37-.18.75-.28,1.12-.07-.51-1-1.48-2.75-2.29S383.71,452.87,386.18,453Z"
            style="fill:#263238"></path>
        <path
            d="M393.67,453.47c2.55.14,1.08,2.9-.95,3.17s-3.32.78-3.69,1.18c.14-.37.26-.74.37-1.11C389.48,456.76,391.25,453.42,393.67,453.47Z"
            style="fill:#263238"></path>
        <path
            d="M386.13,449.65c2.58-.31,3.85,3.12,3.76,3.17q0,.57-.06,1.14c-.16-.49-1.29-1.3-3.14-1.84S383.67,449.88,386.13,449.65Z"
            style="fill:#263238"></path>
        <path
            d="M393.61,449c2.54-.23,1.62,2.7-.33,3.25s-3.12,1.25-3.41,1.7c.06-.38.11-.77.15-1.15C390.11,452.86,391.21,449.33,393.61,449Z"
            style="fill:#263238"></path>
        <path
            d="M385.44,446.35c2.48-.69,4.4,2.53,4.32,2.58.06.37.12.75.16,1.13-.26-.45-1.52-1.09-3.46-1.35S383.06,446.94,385.44,446.35Z"
            style="fill:#263238"></path>
        <path
            d="M392.69,444.63c2.46-.6,2.12,2.44.31,3.27s-2.85,1.68-3,2.16c0-.38,0-.76-.07-1.14C390,449,390.39,445.29,392.69,444.63Z"
            style="fill:#263238"></path>
        <path
            d="M384.12,443.17c2.31-1,4.83,1.87,4.76,1.93.13.37.26.74.38,1.1-.35-.41-1.72-.86-3.67-.84S381.88,444.1,384.12,443.17Z"
            style="fill:#263238"></path>
        <path
            d="M390.93,440.41c2.31-1,2.57,2.11.94,3.2s-2.48,2.09-2.58,2.59c-.08-.38-.18-.75-.29-1.13C389.1,445.09,388.79,441.4,390.93,440.41Z"
            style="fill:#263238"></path>
        <path
            d="M388.12,443a12.07,12.07,0,0,0-1.32-4.85c-1-1.57-2.56-1.31-3-.63s.28,1.75,1.09,2.52S388.16,442.92,388.12,443Z"
            style="fill:#263238"></path>
        <path
            d="M388.06,443.08h0a.15.15,0,0,0,.16,0h0s0-.05,0-.1a11.83,11.83,0,0,0-1.34-4.89,2.35,2.35,0,0,0-1.95-1.22,1.5,1.5,0,0,0-1.28.6c-.61.92.69,2.27,1.11,2.66.85.69,3,2.7,3.19,2.92A.16.16,0,0,0,388.06,443.08Zm-2.37-5.84a2.34,2.34,0,0,1,1,.93,12.12,12.12,0,0,1,1.3,4.43c-.2-.2-.52-.49-1-1s-1.5-1.36-2-1.73c-.78-.74-1.47-1.75-1.07-2.37a1.22,1.22,0,0,1,1-.47A1.72,1.72,0,0,1,385.69,437.24Z"
            style="fill:#263238"></path>
        <path
            d="M388.62,466a.27.27,0,0,0,.34,0c9.36-5.41,14.9-14.85,14.45-24.64a.26.26,0,0,0-.51,0c.44,9.63-5,18.92-14.22,24.25a.2.2,0,0,0-.07.31Z"
            style="fill:#263238"></path>
        <path
            d="M392.93,457.17c2.57,1.56.4,5.55.27,5.52-.38.34-.77.67-1.16,1,.33-.56.13-2.1-1-3.92S390.55,455.6,392.93,457.17Z"
            style="fill:#263238"></path>
        <path
            d="M400.1,462c2.46,1.62-1.14,3.56-3.4,2.67s-3.95-1.13-4.63-.94c.42-.3.83-.6,1.23-.92C393.35,462.89,397.71,460.53,400.1,462Z"
            style="fill:#263238"></path>
        <path
            d="M395.44,453.75c2.83,1.17,1.49,5.39,1.36,5.38-.3.38-.61.76-.93,1.13.21-.6-.3-2.07-1.75-3.69S392.79,452.56,395.44,453.75Z"
            style="fill:#263238"></path>
        <path
            d="M403.44,457.45c2.73,1.23-.42,3.65-2.81,3.09s-4.1-.55-4.73-.26c.35-.35.7-.71,1-1.07C397,459.3,400.8,456.37,403.44,457.45Z"
            style="fill:#263238"></path>
        <path
            d="M397.26,450c3,.74,2.5,5.08,2.38,5.09-.22.41-.46.83-.7,1.23.08-.61-.7-2-2.45-3.36S394.41,449.25,397.26,450Z"
            style="fill:#263238"></path>
        <path
            d="M405.85,452.52c2.93.81.28,3.65-2.17,3.44s-4.14.05-4.7.42c.27-.39.54-.79.8-1.19C399.85,455.27,403,451.84,405.85,452.52Z"
            style="fill:#263238"></path>
        <path
            d="M398.34,446.11c3.11.29,3.43,4.65,3.32,4.67-.14.44-.29.88-.46,1.32,0-.61-1.07-1.85-3.05-3S395.38,445.74,398.34,446.11Z"
            style="fill:#263238"></path>
        <path
            d="M407.28,447.29c3.05.38,1,3.58-1.48,3.73s-4.07.65-4.56,1.09c.2-.42.39-.85.56-1.29C401.89,450.9,404.38,447,407.28,447.29Z"
            style="fill:#263238"></path>
        <path
            d="M398.64,442c3.13-.16,4.29,4.11,4.18,4.15-.06.46-.12.92-.2,1.38-.15-.61-1.41-1.68-3.58-2.49S395.66,442.12,398.64,442Z"
            style="fill:#263238"></path>
        <path
            d="M407.69,441.89c3.08-.07,1.66,3.41-.74,3.92s-3.9,1.25-4.28,1.76c.11-.45.21-.9.3-1.36C403.07,446.27,404.78,442.07,407.69,441.89Z"
            style="fill:#263238"></path>
        <path
            d="M403.17,443.52c.06.05,1.51-3.74,1.24-5.92s-2.08-2.52-2.94-2-.67,2.05-.2,3.24A46.18,46.18,0,0,1,403.17,443.52Z"
            style="fill:#263238"></path>
        <path
            d="M403,443.61h0a.18.18,0,0,0,.2,0h0a.12.12,0,0,0,.08-.09,14.2,14.2,0,0,0,1.24-6,2.43,2.43,0,0,0-1.46-2.18,2,2,0,0,0-1.75.12c-1.18.76-.5,2.8-.26,3.4.55,1.12,1.82,4.26,1.89,4.58A.14.14,0,0,0,403,443.61Zm.64-7.44a2.41,2.41,0,0,1,.56,1.45,14.14,14.14,0,0,1-1,5.42c-.11-.3-.3-.76-.59-1.47-.38-.92-.89-2.13-1.19-2.74-.45-1.14-.65-2.55.14-3.06a1.6,1.6,0,0,1,1.41-.09A2,2,0,0,1,403.68,436.17Z"
            style="fill:#263238"></path>
        <path
            d="M48,460.64a.24.24,0,0,1-.28-.06,21,21,0,0,1-1.52-22.94.23.23,0,0,1,.28-.09.18.18,0,0,1,.1.25,20.65,20.65,0,0,0,1.5,22.58.17.17,0,0,1-.07.25Z"
            style="fill:#263238"></path>
        <path
            d="M48.09,452.69c-2.55.44-2.43,4.1-2.32,4.12.16.36.32.73.5,1.09,0-.53.71-1.64,2.25-2.69S50.51,452.19,48.09,452.69Z"
            style="fill:#263238"></path>
        <path
            d="M40.8,454.25c-2.49.51-.5,3,1.56,3s3.44.29,3.88.64c-.21-.35-.4-.7-.59-1.06C45.58,456.91,43.17,453.84,40.8,454.25Z"
            style="fill:#263238"></path>
        <path
            d="M47.49,449.36c-2.59.07-3.19,3.66-3.09,3.69.08.38.17.75.28,1.13.07-.52,1-1.49,2.74-2.29S50,449.23,47.49,449.36Z"
            style="fill:#263238"></path>
        <path
            d="M40,449.83c-2.54.14-1.08,2.9,1,3.17s3.33.79,3.69,1.19c-.13-.37-.25-.74-.37-1.12C44.19,453.12,42.42,449.78,40,449.83Z"
            style="fill:#263238"></path>
        <path d="M47.54,446c-2.57-.31-3.85,3.13-3.76,3.17q0,.57.06,1.14c.17-.49,1.29-1.3,3.15-1.84S50,446.24,47.54,446Z"
            style="fill:#263238"></path>
        <path
            d="M40.07,445.38c-2.54-.23-1.62,2.7.32,3.26s3.13,1.24,3.41,1.69q-.09-.57-.15-1.14C43.57,449.23,42.46,445.69,40.07,445.38Z"
            style="fill:#263238"></path>
        <path
            d="M48.23,442.71c-2.48-.68-4.39,2.53-4.31,2.58-.07.38-.12.76-.17,1.14.26-.46,1.53-1.1,3.46-1.36S50.62,443.3,48.23,442.71Z"
            style="fill:#263238"></path>
        <path
            d="M41,441c-2.46-.6-2.11,2.43-.3,3.26s2.84,1.69,3,2.16c0-.38,0-.76.07-1.14C43.69,445.31,43.28,441.65,41,441Z"
            style="fill:#263238"></path>
        <path
            d="M49.56,439.53c-2.31-1-4.83,1.88-4.76,1.94-.14.36-.27.73-.38,1.1.34-.42,1.71-.86,3.67-.84S51.79,440.46,49.56,439.53Z"
            style="fill:#263238"></path>
        <path
            d="M42.74,436.77c-2.3-.95-2.56,2.11-.94,3.2s2.48,2.09,2.58,2.59c.09-.38.18-.75.29-1.13C44.57,441.45,44.88,437.76,42.74,436.77Z"
            style="fill:#263238"></path>
        <path
            d="M45.55,439.33a12.33,12.33,0,0,1,1.33-4.85c1-1.57,2.55-1.31,3-.63s-.28,1.75-1.09,2.52S45.51,439.29,45.55,439.33Z"
            style="fill:#263238"></path>
        <path
            d="M45.62,439.44h0a.16.16,0,0,1-.16,0h0s0,0,0-.09a11.79,11.79,0,0,1,1.35-4.89,2.33,2.33,0,0,1,1.94-1.23,1.53,1.53,0,0,1,1.29.6c.6.92-.7,2.27-1.11,2.66-.85.69-3,2.71-3.2,2.92A.11.11,0,0,1,45.62,439.44ZM48,433.61a2.34,2.34,0,0,0-1,.93A11.8,11.8,0,0,0,45.71,439c.2-.19.51-.49,1-.95s1.49-1.35,2-1.73c.77-.74,1.47-1.75,1.06-2.37a1.22,1.22,0,0,0-1-.47A1.63,1.63,0,0,0,48,433.61Z"
            style="fill:#263238"></path>
        <path
            d="M45.06,462.34a.3.3,0,0,1-.35.05c-9.36-5.42-14.9-14.86-14.45-24.65a.25.25,0,0,1,.27-.21.23.23,0,0,1,.24.23c-.44,9.63,5,18.93,14.23,24.25a.21.21,0,0,1,.07.31Z"
            style="fill:#263238"></path>
        <path
            d="M40.74,453.53c-2.57,1.56-.39,5.55-.26,5.53.37.33.76.66,1.16,1-.33-.56-.13-2.1,1-3.91S43.13,452,40.74,453.53Z"
            style="fill:#263238"></path>
        <path
            d="M33.57,458.34C31.11,460,34.72,461.91,37,461s4-1.13,4.64-.94c-.42-.3-.84-.6-1.24-.92C40.32,459.25,36,456.89,33.57,458.34Z"
            style="fill:#263238"></path>
        <path
            d="M38.23,450.12c-2.83,1.17-1.49,5.38-1.36,5.37.3.38.61.76.94,1.13-.21-.6.3-2.07,1.75-3.69S40.88,448.92,38.23,450.12Z"
            style="fill:#263238"></path>
        <path
            d="M30.23,453.81c-2.73,1.23.43,3.66,2.81,3.1s4.11-.55,4.73-.27c-.35-.35-.69-.7-1-1.07C36.69,455.66,32.87,452.73,30.23,453.81Z"
            style="fill:#263238"></path>
        <path
            d="M36.42,446.4c-3,.75-2.5,5.08-2.38,5.09.22.41.45.83.7,1.24-.09-.62.7-2,2.44-3.37S39.26,445.61,36.42,446.4Z"
            style="fill:#263238"></path>
        <path
            d="M27.82,448.88c-2.92.82-.28,3.66,2.17,3.45s4.15.05,4.71.42c-.28-.4-.55-.8-.8-1.2C33.82,451.63,30.64,448.2,27.82,448.88Z"
            style="fill:#263238"></path>
        <path
            d="M35.34,442.47c-3.11.3-3.44,4.65-3.32,4.67q.21.67.45,1.32c0-.61,1.07-1.85,3.06-3S38.3,442.11,35.34,442.47Z"
            style="fill:#263238"></path>
        <path
            d="M26.39,443.65c-3,.38-1,3.58,1.48,3.73s4.08.65,4.56,1.1c-.2-.43-.38-.86-.56-1.3C31.78,447.26,29.29,443.4,26.39,443.65Z"
            style="fill:#263238"></path>
        <path
            d="M35,438.4c-3.13-.16-4.28,4.12-4.17,4.15.05.46.12.92.19,1.38.15-.6,1.41-1.68,3.58-2.48S38,438.48,35,438.4Z"
            style="fill:#263238"></path>
        <path
            d="M26,438.25c-3.07-.07-1.65,3.42.75,3.93s3.89,1.24,4.28,1.75c-.11-.45-.22-.9-.3-1.36C30.6,442.64,28.89,438.44,26,438.25Z"
            style="fill:#263238"></path>
        <path d="M30.5,439.88c-.06.05-1.51-3.74-1.24-5.91s2.09-2.53,2.94-2,.67,2.05.2,3.24S30.44,439.85,30.5,439.88Z"
            style="fill:#263238"></path>
        <path
            d="M30.64,440l0,0a.2.2,0,0,1-.2,0h0s-.07,0-.08-.1a14.2,14.2,0,0,1-1.24-6,2.44,2.44,0,0,1,1.47-2.18,2,2,0,0,1,1.75.12c1.18.76.49,2.8.26,3.41-.56,1.11-1.83,4.26-1.9,4.57A.12.12,0,0,1,30.64,440ZM30,432.54a2.51,2.51,0,0,0-.56,1.44,14.18,14.18,0,0,0,1,5.43c.11-.3.29-.76.58-1.48.38-.92.89-2.13,1.2-2.74.44-1.14.64-2.55-.15-3.06a1.58,1.58,0,0,0-1.4-.08A1.75,1.75,0,0,0,30,432.54Z"
            style="fill:#263238"></path>
    </g>
    <g id="freepik--Tree--inject-7">
        <path
            d="M372.18,248.5c-2.3-2.42-5.12-7.32-7.14-11.31-.4-1.15-.82-2.28-1.31-3.39-.39-.91-.83-1.79-1.28-2.65,0,0,0-.06.05-.05.7.2,5.5,1.06,3.3-3.61s-11.48-9.33-11.48-9.33,2.36-2.1.16-3.24a49.6,49.6,0,0,0-9.74-3c-1.23-.09-13.71-7.69-17.31-7.46s-.6,2.11-.6,2.11a32.77,32.77,0,0,0-7-2,23,23,0,0,0-4.47-.27s-8.24-.32-13.74,3.91-5.63,8.25-8.2,11-14.87.81-20.14,5.11-1.76,8.84-2.69,10.35-9.84,7-5.2,12.91c3.57,4.51,16.29,5,21.43,5.82.68.31,1.39.61,2.13.88-1.21,1.69-8.18.46-.61,4.89,6.87,4,14.41,2,18.8,4.15,3.33,2.34,5.7,4.73,6.51,7,2,5.41,3.45,10.63,3.45,10.63s9.75-6.4,15.42-8.69a9.63,9.63,0,0,1,4.83.15c4.37,1.5,15.11,11.63,18.41,9.8s1.57-4.61,1.57-4.61,7.31,3.6,9.21,1.37a5.51,5.51,0,0,0,.93-5s8-1.51,11-9.25S376.45,253,372.18,248.5Z"
            style="fill:#3572EF"></path>
        <path
            d="M446.8,113.57c-9.49-4.78-22.91-15.88-32.92-25.12-2.31-2.8-4.69-5.55-7.23-8.19-2.07-2.14-4.25-4.18-6.48-6.17,0-.11,0-.18.1-.18,2.41,0,18.45-1.37,7.22-12.31s-44.92-16.42-44.92-16.42,5.62-7.52-2.41-8.89-29.67-1.36-33.69-.68-50.53-10.26-61.76-6.84,0,6.16,0,6.16-13.64-1.37-24.07,0-14.43,2.73-14.43,2.73-26.48,5.47-40.11,21.2-10.43,26.67-16,36.24-46.52,13.68-59.35,29.41,2.4,25.3.8,30.09-24.87,26.67-4.82,39C122.11,203,163,194.67,180,192.8q3.68.48,7.55.74c-2.29,5.51-25.56,7.56,2.52,13.71,25.44,5.58,47.59-5.69,63.46-3.27,12.69,3.76,22.39,8.4,27,13.84C291.75,231,301.17,244,301.17,244s25.17-24.87,41.11-35.45c4.78-2.05,10.18-3.56,15.48-3.32,15.24.69,58.56,19.83,67.38,12.31s.8-13.68.8-13.68,26.47,4.11,30.48-3.41-1.6-14.37-1.6-14.37,24.06-10.25,26.47-33.5S464.44,122.46,446.8,113.57Z"
            style="fill:#3572EF"></path>
        <path
            d="M446.8,113.57c-9.49-4.78-22.91-15.88-32.92-25.12-2.31-2.8-4.69-5.55-7.23-8.19-2.07-2.14-4.25-4.18-6.48-6.17,0-.11,0-.18.1-.18,2.41,0,18.45-1.37,7.22-12.31s-44.92-16.42-44.92-16.42,5.62-7.52-2.41-8.89-29.67-1.36-33.69-.68-50.53-10.26-61.76-6.84,0,6.16,0,6.16-13.64-1.37-24.07,0-14.43,2.73-14.43,2.73-26.48,5.47-40.11,21.2-10.43,26.67-16,36.24-46.52,13.68-59.35,29.41,2.4,25.3.8,30.09-24.87,26.67-4.82,39c.53.32,1.1.62,1.68.9,8.74.18,21.2-4.36,38.26-20.51,40.77-38.58,55.33-40,55.33-40s-37.86,3.64-29.12-5.09,42.22-18.93,51.68-19.66,38.58-.73,38.58-.73-22.56-10.91-12.37-13.83,29.12-.72,38.58,2.19,22.57,11.64,22.57,11.64S357,93.9,355.54,99s-8,10.92-8,10.92,47.31,4.37,44.4,14.56-8,4.37-2.91,10.19,13.1,20.38,36.4,29.85,53.14,6.55,42.22,0-42.95-18.93-12.38-18.93c9.19,0,18.1,2.5,26.09,6C483.13,129.11,464.19,122.33,446.8,113.57Z"
            style="fill:#fff;opacity:0.30000000000000004"></path>
        <path
            d="M309.27,286.32c-1.31-31.51-2.43-57.8-2.43-57.8l6.66-20.75s14-24,22.12-31.85S365,143.56,365,143.56s-18.06,15.14-22.58,19.84-11.28,7.3-11.28,7.3,2.71-9.39,3.61-11,6.77-30.8,6.77-30.8-8.58,27.67-14.45,40.2-25.74,40.72-25.74,40.72l-3.16-12.53s-.9-20.36-.45-22.45,14-39.15,14-39.15L293.18,165l-7.68-54.81.9,60.55a51.71,51.71,0,0,0-5-3.65c-1.81-1-24.39-18.27-26.64-21.4s-14-18.27-14-18.27l9,20.35-23-9.91s52.83,33.41,55.09,43.32,3,29.63,3,29.63.51,96.11.05,114.93-5.59,83.37-6.05,100,.95,40.21.95,40.21h45.11s-10.7-48.27-12.1-89.15c-.6-17.58-1.79-47.46-2.95-75.81l27.47-55Z"
            style="fill:#263238"></path>
        <path
            d="M324.92,466.45H279.81a.49.49,0,0,1-.5-.47c0-.23-1.41-23.75-.95-40.25.22-7.94,1.48-26.52,2.82-46.19,1.47-21.62,3-44,3.23-53.85.46-18.6,0-113.95-.05-114.91,0-.19-.74-19.77-3-29.52s-54.34-42.69-54.86-43a.5.5,0,0,1-.18-.66.49.49,0,0,1,.64-.22l21.86,9.41-8.52-19.19a.51.51,0,0,1,.2-.63.5.5,0,0,1,.65.12c.12.15,11.78,15.18,14,18.28,2.09,2.91,24.4,20.06,26.49,21.27a42.85,42.85,0,0,1,4.2,3L285,110.16a.5.5,0,0,1,1-.08l7.48,53.46,17.79-28.08a.5.5,0,0,1,.89.44c-4.68,12.81-13.63,37.46-14,39.09s.21,16.58.46,22.26l2.88,11.42c3.43-4.9,19.87-28.65,25.07-39.74,5.79-12.36,14.34-39.86,14.42-40.14a.5.5,0,0,1,1,.25c-.6,3-5.91,29.36-6.83,31a94.67,94.67,0,0,0-3.27,9.84A34.35,34.35,0,0,0,342,163.05c4.49-4.66,22.44-19.72,22.62-19.87a.5.5,0,0,1,.68,0,.51.51,0,0,1,0,.68c-.21.24-21.33,24.64-29.38,32.39-7.82,7.53-21.31,30.5-22,31.69l-6.61,20.62c.07,1.66,1.12,26.44,2.36,56.23l27.22-39.07a.51.51,0,0,1,.67-.14.49.49,0,0,1,.19.65L310.38,301.1c1.45,35.43,2.44,60.89,2.94,75.68,1.38,40.37,12,88.58,12.08,89.06a.48.48,0,0,1-.09.42A.51.51,0,0,1,324.92,466.45Zm-44.64-1h44c-1.24-5.73-10.68-50.64-12-88.63-.5-14.81-1.5-40.31-2.95-75.81a.53.53,0,0,1,.05-.25L333.82,252l-24.14,34.64a.5.5,0,0,1-.55.19.49.49,0,0,1-.36-.46c-1.31-31.51-2.43-57.8-2.43-57.8a.51.51,0,0,1,0-.17L313,207.62a1,1,0,0,1,0-.1c.58-1,14.13-24.17,22.21-32,5.79-5.57,18.37-19.79,25-27.38-5.69,4.84-14.57,12.49-17.52,15.56a35.9,35.9,0,0,1-11.47,7.43.5.5,0,0,1-.52-.1.47.47,0,0,1-.14-.5c.11-.39,2.73-9.48,3.65-11.08.49-.84,2.79-11.5,4.9-21.71-3,9.22-7.93,23.55-11.68,31.57-5.83,12.42-25.59,40.51-25.79,40.79a.49.49,0,0,1-.89-.16l-3.16-12.53s0-.07,0-.1c0-.83-.9-20.45-.44-22.58.37-1.68,8.82-25,12.43-34.85l-16,25.31a.48.48,0,0,1-.53.22.5.5,0,0,1-.39-.42l-6.56-46.85.78,52.52a.47.47,0,0,1-.28.45.49.49,0,0,1-.53-.06,51.67,51.67,0,0,0-4.9-3.61c-1.93-1.11-24.5-18.36-26.8-21.54-1.58-2.19-7.88-10.36-11.46-15l7.36,16.59a.52.52,0,0,1-.1.56.51.51,0,0,1-.56.1l-17.46-7.52c13.39,8.71,48.33,32.11,50.21,40.36,2.24,9.85,3,29.53,3,29.73,0,1,.51,96.34.05,115-.25,9.89-1.77,32.26-3.23,53.89-1.34,19.67-2.6,38.24-2.82,46.16C278.94,440.93,280.09,462.05,280.28,465.45Z"
            style="fill:#263238"></path>
    </g>
    <g id="freepik--Floor--inject-7">
        <polygon
            points="37.88 459.78 49.21 459.78 46.85 455.06 54.4 460.73 54.87 453.17 59.12 458.37 61.95 450.81 64.78 458.37 75.17 451.76 72.81 460.25 80.83 456.01 82.25 460.25 90.75 456.95 91.69 461.2 269.64 461.2 269.64 457.42 275.3 460.73 278.13 454.12 280.49 458.37 288.99 444.68 289.93 457.89 296.07 450.34 296.54 456.48 300.32 451.29 300.32 458.84 304.09 447.98 310.23 459.78 306.45 441.85 317.31 461.67 319.67 445.62 322.03 459.78 329.58 439.49 328.64 458.84 346.1 448.93 342.33 457.89 347.52 458.37 362.62 461.2 367.81 455.53 368.76 460.73 414.07 460.73 356.49 467.33 385.28 471.11 331 473 333.36 476.3 311.65 476.3 280.96 479.13 299.37 473 240.84 477.72 209.22 478.66 183.73 478.66 196.95 473.94 170.51 473.94 180.43 471.11 129.45 472.06 144.08 474.42 81.78 470.64 95.94 465.92 20.89 464.5 37.88 459.78"
            style="fill:#3572EF"></polygon>
    </g>
    <g id="freepik--Character--inject-7">
        <path
            d="M249.08,304.87s-14.85,6.45-19.2,14.52-2.1,13.88,2.9,18.08,5.81,5.48,2.75,9.68-3.72,10.33,0,14,10.65,6.13,10.32,9-6.45,1.94-4.84,9.69,7.75,8.87,19.53,4.84,20.81-14.37,23.07-26-5.48-25.66-16.46-35.51A195.28,195.28,0,0,1,249.08,304.87Z"
            style="fill:#7d7d7d"></path>
        <path
            d="M249.69,387.53a10.08,10.08,0,0,1-5.1-1.17c-2.1-1.19-3.42-3.27-4.07-6.35-1.11-5.32,1.33-6.87,3.12-8,1-.64,1.63-1.07,1.72-1.83.16-1.45-2.27-3-4.84-4.66a32.68,32.68,0,0,1-5.35-4c-4-4.05-3-10.59,0-14.69,2.84-3.89,2.2-4.92-2.66-9-6-5-7-11.32-3-18.7,4.39-8.12,18.83-14.47,19.44-14.74a.49.49,0,0,1,.58.14,198.85,198.85,0,0,0,18,18.34c12.21,11,18.73,25.08,16.61,36-2.32,11.94-11.5,22.29-23.4,26.36A35.62,35.62,0,0,1,249.69,387.53Zm-.75-82c-2.22,1-14.76,7-18.62,14.15-3.73,6.9-2.79,12.77,2.78,17.45,5.14,4.31,6.09,5.9,2.83,10.36-2.75,3.77-3.71,9.74-.05,13.39a31.21,31.21,0,0,0,5.18,3.84c3,1.9,5.52,3.54,5.29,5.61-.14,1.27-1.18,1.93-2.18,2.57-1.7,1.08-3.64,2.31-2.67,6.95.58,2.79,1.75,4.65,3.58,5.7,3,1.71,7.87,1.32,15.3-1.23,11.56-4,20.49-14,22.74-25.6,2.06-10.56-4.34-24.31-16.3-35A203.1,203.1,0,0,1,248.94,305.48Z"
            style="fill:#263238"></path>
        <path
            d="M247,364.73a8.87,8.87,0,0,1-1.58-.15.5.5,0,0,1-.4-.58.48.48,0,0,1,.58-.4,7.81,7.81,0,0,0,5.77-1.24.5.5,0,1,1,.61.79A8.6,8.6,0,0,1,247,364.73Z"
            style="fill:#263238"></path>
        <path
            d="M241.25,362.6a.49.49,0,0,1-.3-.1,16.72,16.72,0,0,1-1.51-1.33c-4.4-4.41-.71-9.15,2-12.61,1.34-1.73,2.62-3.36,2.47-4.39-.22-1.64-1.77-3.08-3.72-4.89a33.4,33.4,0,0,1-6.14-7c-1.88-3.07-.86-7.12,3-11.71a.5.5,0,1,1,.77.64c-2.46,2.95-5,7.17-2.88,10.54a31.6,31.6,0,0,0,6,6.82c2.1,1.95,3.76,3.49,4,5.49.19,1.44-1.14,3.15-2.68,5.13-2.75,3.52-5.85,7.51-2.07,11.29a13.32,13.32,0,0,0,1.41,1.24.5.5,0,0,1,.09.7A.51.51,0,0,1,241.25,362.6Z"
            style="fill:#263238"></path>
        <path
            d="M239,319.59a.52.52,0,0,1-.35-.14.5.5,0,0,1,0-.71,29.6,29.6,0,0,1,2.29-2.15.52.52,0,0,1,.71.07.5.5,0,0,1-.07.7s-1,.81-2.21,2.08A.51.51,0,0,1,239,319.59Z"
            style="fill:#263238"></path>
        <path
            d="M215,407.25s-19.14-6.63-30.43-10.31-13.25-4.42-16.19-2-29,29.2-33.87,33.13-7.6,6.62-7.6,6.62l3.68,6.38s11.28-5.15,25.52-11.78,21.35-13.25,21.35-13.25,20.12,14.48,28.46,19.14,18.16,10.06,18.16,10.06a114.35,114.35,0,0,0,10.31-7.85c3.43-3.19,3.93-15.95,3.93-15.95Z"
            style="fill:#263238"></path>
        <path
            d="M224.08,445.78a.53.53,0,0,1-.24-.06c-.1-.05-9.91-5.45-18.16-10.06-7.69-4.3-25.56-17.05-28.19-18.94C176,418,168.84,424,156.32,429.79c-14.07,6.55-25.41,11.73-25.53,11.78a.51.51,0,0,1-.64-.21L126.47,435a.5.5,0,0,1,.08-.6s2.78-2.77,7.65-6.66c2.85-2.29,13.15-12.6,21.42-20.88,6-6,11.2-11.22,12.44-12.25,3.08-2.56,5.26-1.85,15.77,1.58l.9.3c11.16,3.64,30.24,10.24,30.44,10.31l.09,0,23.32,14.23a.51.51,0,0,1,.23.45c0,.53-.53,13-4.08,16.3a113.3,113.3,0,0,1-10.37,7.9A.54.54,0,0,1,224.08,445.78Zm-46.62-30.2a.46.46,0,0,1,.29.1c.2.14,20.19,14.51,28.42,19.11,7.48,4.18,16.25,9,17.88,9.91a110,110,0,0,0,10-7.63c3-2.76,3.65-13.41,3.75-15.32l-23-14.05c-1.11-.38-19.5-6.74-30.37-10.28l-.9-.3c-10.31-3.36-12.17-4-14.82-1.76-1.21,1-6.38,6.18-12.37,12.18-8.72,8.74-18.61,18.64-21.5,21-4,3.16-6.5,5.55-7.3,6.32l3.26,5.65c2.17-1,12.55-5.74,25.11-11.59,14-6.52,21.15-13.1,21.22-13.16A.48.48,0,0,1,177.46,415.58Z"
            style="fill:#263238"></path>
        <path
            d="M221.22,435.66s-5.65,1.75-32.12,1.75-26.28.39-35.82,2.53S124.47,444,121,444h-7.4l-.19,12.07s14.79,2.33,29.2,3.89,31.93-1.17,39.71-1.36,25.12,4.47,47.5,5.84,33.49-3.51,35-4.09S221.22,435.66,221.22,435.66Z"
            style="fill:#263238"></path>
        <path
            d="M237.36,465.2c-2.47,0-5-.08-7.61-.23a305.36,305.36,0,0,1-31.92-4c-6.77-1.1-12.12-2-15.53-1.89-2.28.05-5.42.33-9.05.65-8.66.76-20.52,1.81-30.73.71-14.26-1.54-29.08-3.88-29.23-3.9a.51.51,0,0,1-.42-.5l.19-12.07a.51.51,0,0,1,.5-.49H121c3.24,0,22.64-1.93,32.21-4.08L155,439c7.95-1.81,9.38-2.13,34.14-2.13,26,0,31.91-1.71,32-1.73a.5.5,0,0,1,.38,0c44,23.53,43.94,24.75,43.91,25.16a.62.62,0,0,1-.36.48l-.29.11C257.61,463.74,248.09,465.2,237.36,465.2Zm-54.59-7.08c3.5,0,8.71.85,15.22,1.92A307.41,307.41,0,0,0,229.81,464c13.49.82,25.61-.53,34.19-3.81-3.53-2.66-26.94-15.47-42.84-24-1.24.31-8.18,1.72-32.06,1.72-24.65,0-26.06.32-33.91,2.11l-1.8.41c-9.84,2.2-29.06,4.1-32.43,4.1h-6.9l-.18,11.14c2.53.39,15.87,2.43,28.74,3.82,10.12,1.1,21.92.05,30.54-.7,3.65-.33,6.8-.61,9.11-.66Z"
            style="fill:#263238"></path>
        <path
            d="M120.18,442l-.35,16.18c.1.37-8.34-.64-15.84-1.23-8.65-.68-9.14-2.11-9.67-3.34s-1.59-12-1.59-12S87.81,430.87,88.16,426s5.63-15.49,6.69-13.73,6.68,15.49,6.68,15.49,7.21,8.79,11.44,10.9S120.18,442,120.18,442Z"
            style="fill:#7d7d7d"></path>
        <path
            d="M119.34,458.72c-.89,0-2.81-.16-7.24-.58-2.53-.24-5.4-.51-8.15-.73-8.83-.7-9.49-2.24-10.07-3.59s-1.49-10.65-1.64-12.08c-.47-1.06-4.92-11-4.58-15.83.32-4.49,4.68-13.88,6.66-14.35a.83.83,0,0,1,1,.41c1,1.72,6.21,14.3,6.69,15.48.63.76,7.33,8.77,11.23,10.72,4.16,2.08,7.15,3.31,7.18,3.33a.49.49,0,0,1,.31.47l-.35,16.18a.66.66,0,0,1-.12.34C120.09,458.63,120,458.72,119.34,458.72Zm0-.44ZM94.46,412.56c-1.26.63-5.47,8.83-5.8,13.42-.34,4.75,4.48,15.31,4.53,15.42a.42.42,0,0,1,0,.16c.42,4.28,1.18,11,1.55,11.81.46,1.1,1,2.39,9.25,3,2.75.22,5.63.49,8.17.74,3,.28,6.11.58,7.14.58l.33-15.44c-.88-.38-3.52-1.52-6.93-3.23-4.27-2.13-11.3-10.67-11.6-11a.47.47,0,0,1-.07-.12C101,427.76,95.6,414.57,94.46,412.56Z"
            style="fill:#263238"></path>
        <path
            d="M98.77,455.73a.51.51,0,0,1-.31-.11c-1.66-1.33-2.13-3.87-2.63-6.56-.13-.73-.27-1.47-.44-2.22-.33-1.47-1.48-4.81-2.7-8.35-2-5.79-3.29-9.67-3.29-10.87s1.21-4.39,3.6-9.73a.5.5,0,1,1,.91.41c-3.17,7.09-3.51,8.88-3.51,9.32,0,1.13,1.72,6.13,3.24,10.54,1.23,3.57,2.39,6.94,2.73,8.47.17.75.31,1.51.44,2.25.49,2.61.91,4.86,2.28,6a.5.5,0,0,1,.08.7A.53.53,0,0,1,98.77,455.73Z"
            style="fill:#263238"></path>
        <path
            d="M94.65,416a.41.41,0,0,1-.21-.05.5.5,0,0,1-.25-.66l.47-1a.49.49,0,0,1,.66-.23.49.49,0,0,1,.24.66s-.18.37-.46,1A.49.49,0,0,1,94.65,416Z"
            style="fill:#263238"></path>
        <path
            d="M236.61,410.35s-4.1-.22-13.58-2.8-15.52-6-15.95-4.1,8.41,14.23,13.15,19.4a24.15,24.15,0,0,0,10.56,6.68,87.73,87.73,0,0,0-12.72,5.39c-6,3.23-9.91,3.88-8,5.6s25,17.67,37.5,22.85a79.08,79.08,0,0,0,22.84,5.81s10.13.65,13.58-3.23,12.72-15.95,12.72-19.61-1.94-5.17-3-6.68S289,416.17,289,412.5s-.61-8.83,2.84-11.63,7.68-14.48,8.55-19.65,1.5-13.33-3-16.66-14.51,3.26-17.45,3.33-26.73,12.5-31.68,22.42A226.91,226.91,0,0,1,236.61,410.35Z"
            style="fill:#3572EF"></path>
        <path
            d="M272.14,469.73c-1,0-1.63,0-1.73-.05a80.32,80.32,0,0,1-23-5.85c-12.59-5.21-35.85-21.34-37.64-22.94a1.58,1.58,0,0,1-.66-1.37c.15-1,1.51-1.61,4-2.74,1.3-.6,2.93-1.34,4.73-2.3a85.52,85.52,0,0,1,11.39-4.94,25.2,25.2,0,0,1-9.37-6.35c-4-4.38-13.8-17.44-13.27-19.85a1.18,1.18,0,0,1,.57-.77c1-.56,3.07.18,6.8,1.51,2.5.89,5.6,2,9.2,3a83.19,83.19,0,0,0,13.19,2.77,227.42,227.42,0,0,0,11.45-19.75c5.06-10.13,29.14-22.61,32.11-22.69a17.84,17.84,0,0,0,4.41-1.49c4.25-1.77,10.07-4.18,13.35-1.74,3.57,2.64,4.64,8.41,3.19,17.14-.85,5.09-5.12,17-8.72,19.95-2.83,2.3-2.75,6.46-2.68,9.8,0,.5,0,1,0,1.45,0,4,3.73,25.59,4.65,26.87.19.27.42.55.66.84a8.75,8.75,0,0,1,2.45,6.13c0,4.12-10.13,16.88-12.84,19.94S275.25,469.73,272.14,469.73ZM208,403.38a.87.87,0,0,0-.4.07.16.16,0,0,0-.07.11c-.32,1.46,7.71,13.15,13,18.95A23.81,23.81,0,0,0,230.92,429a.51.51,0,0,1,.37.47.49.49,0,0,1-.35.49,89.47,89.47,0,0,0-12.63,5.36c-1.83,1-3.47,1.73-4.79,2.33-1.72.78-3.35,1.53-3.42,2,0,.1.11.28.33.48,1.78,1.58,24.86,17.58,37.36,22.75a79.69,79.69,0,0,0,22.69,5.79c.1,0,9.92.58,13.17-3.07,3.76-4.24,12.59-15.91,12.59-19.28a7.8,7.8,0,0,0-2.22-5.5c-.26-.3-.5-.6-.71-.89-1.27-1.78-4.83-24.11-4.83-27.45,0-.45,0-.93,0-1.43-.07-3.56-.16-8,3.05-10.59s7.45-13.88,8.36-19.35c1.37-8.21.4-13.8-2.79-16.17-2.83-2.1-8.35.19-12.38,1.86a17.32,17.32,0,0,1-4.76,1.57c-2.85.07-26.46,12.57-31.25,22.14A229,229,0,0,1,237,410.62a.49.49,0,0,1-.45.23c-.17,0-4.25-.25-13.68-2.82-3.64-1-6.76-2.11-9.27-3A25.66,25.66,0,0,0,208,403.38Z"
            style="fill:#263238"></path>
        <path
            d="M250.54,405.54a.51.51,0,0,1-.39-.18.5.5,0,0,1,.07-.7c4-3.31,9.77-8.22,14.83-12.87,8.49-7.82,14.71-14.71,14.78-14.78a.5.5,0,0,1,.74.67c-.06.07-6.31,7-14.84,14.84-5.07,4.67-10.89,9.6-14.87,12.91A.54.54,0,0,1,250.54,405.54Z"
            style="fill:#263238"></path>
        <path
            d="M246.11,409.18a.5.5,0,0,1-.39-.18.52.52,0,0,1,.07-.71s1-.76,2.5-2a.49.49,0,0,1,.7.07.5.5,0,0,1-.07.7c-1.55,1.28-2.5,2-2.5,2A.45.45,0,0,1,246.11,409.18Z"
            style="fill:#263238"></path>
        <path
            d="M251.48,442.31a.52.52,0,0,1-.27-.07A33.59,33.59,0,0,1,248.1,440a.5.5,0,0,1,.63-.77,31.51,31.51,0,0,0,3,2.17.5.5,0,0,1,.15.69A.49.49,0,0,1,251.48,442.31Z"
            style="fill:#263238"></path>
        <path
            d="M246.26,438.19a.49.49,0,0,1-.34-.14A33.32,33.32,0,0,1,238.73,428a.5.5,0,1,1,.93-.38,32.53,32.53,0,0,0,7,9.71.5.5,0,0,1,0,.71A.51.51,0,0,1,246.26,438.19Z"
            style="fill:#263238"></path>
        <path
            d="M252.63,366.67s-.81-1.45,4-4.51a145.12,145.12,0,0,0,12.11-9.2l3.87,6.45s-10.49,8.07-13.72,8.88S252.63,366.67,252.63,366.67Z"
            style="fill:#fff"></path>
        <path
            d="M257.55,369a9.41,9.41,0,0,1-5.23-1.88.93.93,0,0,1-.13-.15c-.17-.32-.78-2,4.21-5.19a146.14,146.14,0,0,0,12-9.15.53.53,0,0,1,.41-.12.54.54,0,0,1,.35.24l3.87,6.46a.49.49,0,0,1-.13.65c-.43.33-10.6,8.14-13.89,9A6,6,0,0,1,257.55,369Zm-4.47-2.56c.63.43,3.15,2.06,5.72,1.41,2.77-.69,11.33-7.11,13.18-8.51l-3.34-5.57a141.86,141.86,0,0,1-11.71,8.86C253.43,364.8,253.1,366.06,253.08,366.39Z"
            style="fill:#263238"></path>
        <path
            d="M243.59,317.13s-3.06,8.39-2.42,12.27,4,8.87,4.52,11.29-1.77,5.65-.81,6.94,4.52,1,4.52,1,2.75,2.58,4.68,4.2,7.43,4.68,8.72,4.19a11.76,11.76,0,0,0,2.9-1.94l2.74,3.07,9-7.58s0-5.65-6-10-19.2-13.72-22.43-17.91a32.7,32.7,0,0,1-4.68-8.55Z"
            style="fill:#fff"></path>
        <path
            d="M268.44,358.62a.51.51,0,0,1-.37-.17l-2.42-2.7a10.58,10.58,0,0,1-2.68,1.71c-1.71.64-7.56-2.91-9.21-4.28s-3.92-3.49-4.54-4.06c-.88.05-3.75.13-4.74-1.19-.64-.86-.24-2.19.18-3.6a8,8,0,0,0,.54-3.54,21.7,21.7,0,0,0-1.73-4.12,28.61,28.61,0,0,1-2.79-7.19c-.65-3.9,2.22-11.91,2.44-12.5l.8-3a.48.48,0,0,1,.46-.37.5.5,0,0,1,.49.34,32.67,32.67,0,0,0,4.61,8.4c2.82,3.67,13.62,11.51,20.08,16.19l2.25,1.63c6.1,4.45,6.17,10.16,6.17,10.41a.49.49,0,0,1-.18.38l-9,7.58A.52.52,0,0,1,268.44,358.62Zm-2.74-4.07h0a.44.44,0,0,1,.34.16l2.42,2.71,8.48-7.12a13.27,13.27,0,0,0-5.75-9.37L269,339.31c-6.5-4.72-17.37-12.6-20.29-16.39a33.81,33.81,0,0,1-4.19-7.24l-.41,1.58,0,0c0,.09-3,8.32-2.39,12a28.11,28.11,0,0,0,2.69,6.93,21.5,21.5,0,0,1,1.82,4.35,8.79,8.79,0,0,1-.56,4c-.34,1.11-.68,2.25-.34,2.71.59.78,2.81.89,4.08.77a.57.57,0,0,1,.39.14s2.75,2.59,4.65,4.17c2.11,1.75,7.28,4.46,8.22,4.11a11.26,11.26,0,0,0,2.75-1.84A.51.51,0,0,1,265.7,354.55Zm-22.11-37.42h0Z"
            style="fill:#263238"></path>
        <path
            d="M246.82,337.17h-.06a1,1,0,0,1-.94-1.05,3.88,3.88,0,0,1,1.42-2.73,4.47,4.47,0,0,1,3.82-.61,1,1,0,0,1-.41,2,2.7,2.7,0,0,0-2.17.23,2,2,0,0,0-.66,1.27A1,1,0,0,1,246.82,337.17Z"
            style="fill:#263238"></path>
        <path
            d="M250.05,340.71a.5.5,0,0,1-.43-.24l-1-1.62a.5.5,0,0,1,.17-.68.49.49,0,0,1,.69.17l.79,1.32a4.71,4.71,0,0,0,2.57-1.19.5.5,0,0,1,.7-.12.51.51,0,0,1,.11.7c-.9,1.27-3.3,1.62-3.57,1.65Z"
            style="fill:#263238"></path>
        <polygon points="265.7 355.06 271.19 348.12 268.44 358.12 265.7 355.06" style="fill:#263238"></polygon>
        <path
            d="M268.44,358.62a.5.5,0,0,1-.37-.17l-2.74-3.06a.51.51,0,0,1,0-.65l5.49-6.94a.49.49,0,0,1,.61-.13.5.5,0,0,1,.26.58l-2.74,10a.5.5,0,0,1-.37.36ZM266.36,355l1.85,2.06,1.85-6.75Z"
            style="fill:#263238"></path>
        <path
            d="M257.47,371.84s-2.26,3.87-8.07,12.1-8.55,17.11-8.07,18.88,6,2.1,6.62,1.61,7.26-13.87,18.24-24.2,14.2-15.49,14-16.3S257.47,371.84,257.47,371.84Z"
            style="fill:#fff"></path>
        <path
            d="M246.52,405.14a12.7,12.7,0,0,1-3.69-.57c-1.12-.39-1.79-.93-2-1.62-.52-1.92,2.24-10.93,8.14-19.3,5.73-8.11,8-12,8.05-12.07a.57.57,0,0,1,.25-.21c14.64-5.64,22.43-8.3,23.15-7.91a.56.56,0,0,1,.27.37c.29,1.43-4.49,7.64-14.18,16.76-8.58,8.08-14.43,18-16.93,22.18a9.5,9.5,0,0,1-1.35,2.06A3.34,3.34,0,0,1,246.52,405.14Zm11.29-32.9c-.47.8-2.87,4.72-8,12-5.75,8.15-8.41,16.93-8,18.46.07.26.4.54.93.77a10,10,0,0,0,4.92.56c.08-.09.56-.9,1.07-1.76,2.52-4.26,8.42-14.23,17.1-22.4,9.8-9.22,13-13.93,13.73-15.41C276.82,365.08,265.21,369.39,257.81,372.24Z"
            style="fill:#263238"></path>
        <path
            d="M278.61,348s-6.94,8.23-10.17,10.17S255.05,366,253.92,366s-2.1,1.13-1.13,2.58a40.63,40.63,0,0,1,3.39,6.13,3.63,3.63,0,0,0,4.2,2.42c2.42-.64,14.68-6.13,20-11s8.06-9.84,6.29-13.72S279.74,345.37,278.61,348Z"
            style="fill:#fff"></path>
        <path
            d="M259.53,377.78a3.76,3.76,0,0,1-2-.58,4.33,4.33,0,0,1-1.86-2.36,42.57,42.57,0,0,0-3.31-5.95,2.24,2.24,0,0,1-.27-2.32,2,2,0,0,1,1.81-1c.87-.08,8.08-4.13,14.27-7.84,3-1.79,9.4-9.31,10-10a2,2,0,0,1,1.88-1.15h0c2.31,0,5.65,2.72,7,5.73,1.77,3.86-.51,8.93-6.41,14.3-5.53,5-17.86,10.46-20.21,11.09A4.19,4.19,0,0,1,259.53,377.78Zm20.57-30.25h0a1,1,0,0,0-1,.62.57.57,0,0,1-.08.13c-.28.34-7,8.31-10.29,10.27-1.36.82-13.34,8-14.78,8a1,1,0,0,0-.92.51,1.23,1.23,0,0,0,.21,1.29c.91,1.36,3.27,5.36,3.46,6.31a3.36,3.36,0,0,0,1.41,1.71,2.69,2.69,0,0,0,2.17.33c2.22-.59,14.48-6,19.8-10.86,5.55-5.05,7.74-9.71,6.18-13.14C284.91,349.82,281.81,347.53,280.1,347.53Zm-1.49.42h0Z"
            style="fill:#263238"></path>
        <path
            d="M243.59,317.13s4.84,17.11,15,22.27,16,8.07,16.78,12.59-5.16,5.16-3.55,11.62,10.17,15,28.24,10.49,15.66-17.92,12.91-27.28-7.9-12.74-15.81-17.58c-6-3.67-8.8-10.86-11.58-16.95s-8.06-13-14.85-15c-8.25-2.39-22.76,3.84-25.86,12.4C242.79,315.52,243.59,317.13,243.59,317.13Z"
            style="fill:#7d7d7d"></path>
        <path
            d="M290.58,375.85a23.78,23.78,0,0,1-11-2.44,15.7,15.7,0,0,1-8.2-9.68c-1-3.81.59-5.75,1.95-7.45,1-1.29,1.91-2.41,1.59-4.2-.75-4.23-6.56-7.18-16.18-12.06l-.34-.17c-10.12-5.14-14.94-21.48-15.25-22.55-.15-.37-.68-2.29,1.29-7.76,3.31-9.15,18.19-15.11,26.47-12.71,8.76,2.54,13.82,12.32,15.16,15.25.25.55.5,1.11.76,1.67,2.49,5.53,5.31,11.8,10.63,15.06,8.16,5,13.29,8.53,16,17.87,1.84,6.27,3.26,13.47-.11,19.35-2.33,4.08-6.76,7-13.16,8.55A39.66,39.66,0,0,1,290.58,375.85ZM266.81,297.3c-8,0-18.84,5.34-21.45,12.58-2,5.39-1.32,7-1.31,7a.24.24,0,0,1,0,.08c.05.17,4.91,16.95,14.76,22l.33.17c10.24,5.19,15.87,8.06,16.72,12.77.4,2.24-.72,3.64-1.8,5-1.28,1.6-2.59,3.25-1.76,6.59a14.69,14.69,0,0,0,7.69,9c5.18,2.68,12.07,3.06,19.94,1.09,6.13-1.53,10.34-4.25,12.54-8.07,3.18-5.56,1.79-12.51,0-18.57-2.64-9-7.4-12.29-15.59-17.31-5.58-3.41-8.47-9.84-11-15.5-.26-.56-.51-1.12-.75-1.66-1.3-2.84-6.19-12.29-14.54-14.71A13.69,13.69,0,0,0,266.81,297.3Z"
            style="fill:#263238"></path>
        <path
            d="M305.92,357.2a.49.49,0,0,1-.49-.41,12.32,12.32,0,0,0-.89-3,.5.5,0,0,1,.9-.42,12.83,12.83,0,0,1,1,3.2.5.5,0,0,1-.4.58Z"
            style="fill:#263238"></path>
        <path
            d="M303.21,351.64a.49.49,0,0,1-.34-.14c-2.48-2.36-6.92-3.42-13.65-5-3.52-.83-7.9-1.88-13-3.35-20.11-5.81-23.91-15.63-24.06-16.05a.49.49,0,0,1,.29-.64.5.5,0,0,1,.64.3c0,.09,3.84,9.77,23.41,15.43,5.06,1.47,9.43,2.5,12.95,3.34,6.88,1.64,11.42,2.72,14.1,5.27a.49.49,0,0,1,0,.7A.46.46,0,0,1,303.21,351.64Z"
            style="fill:#263238"></path>
        <path
            d="M312,357.2h-.06a.5.5,0,0,1-.44-.55c.66-6.61-5.14-11-18.26-13.75-10.51-2.23-24.24-7.82-29.91-21.86a37.23,37.23,0,0,0-2.12-4.46.51.51,0,0,1,.19-.68.52.52,0,0,1,.69.19,39.35,39.35,0,0,1,2.17,4.58c5.5,13.62,18.91,19.08,29.19,21.25,13.71,2.9,19.76,7.61,19,14.83A.49.49,0,0,1,312,357.2Z"
            style="fill:#263238"></path>
        <path
            d="M260.29,314.71a.49.49,0,0,1-.41-.21c-3.58-5.08-6.63-4.55-6.66-4.54a.5.5,0,0,1-.21-1c.15,0,3.69-.73,7.69,4.94a.51.51,0,0,1-.12.7A.52.52,0,0,1,260.29,314.71Z"
            style="fill:#263238"></path>
        <path d="M207.38,362.09a20.74,20.74,0,0,1,7.32,2.75,26.49,26.49,0,0,1,5,4.25l-3.82,5.1Z" style="fill:#fff">
        </path>
        <path
            d="M215.87,374.69h0a.53.53,0,0,1-.4-.22L207,362.37a.5.5,0,0,1,.48-.78,21.17,21.17,0,0,1,7.53,2.84,26.7,26.7,0,0,1,5.09,4.34.5.5,0,0,1,0,.62l-3.82,5.1A.52.52,0,0,1,215.87,374.69Zm-7.36-11.86,7.37,10.5,3.16-4.21a26.77,26.77,0,0,0-4.62-3.86A19.24,19.24,0,0,0,208.51,362.83Z"
            style="fill:#263238"></path>
        <polygon points="214.81 374.82 207.38 362.08 215.87 374.19 214.81 374.82" style="fill:#3572EF"></polygon>
        <path
            d="M214.81,375.32h-.13a.53.53,0,0,1-.31-.24l-7.43-12.73a.5.5,0,0,1,.85-.54l8.49,12.1a.49.49,0,0,1,.08.39.54.54,0,0,1-.23.32l-1.07.64A.43.43,0,0,1,214.81,375.32Zm-1-3.19,1.16,2,.17-.1Z"
            style="fill:#263238"></path>
        <path d="M207.38,362.09s3.82,1.91,5.41,4.13,3.08,7.22,3.08,7.22Z" style="fill:#fff"></path>
        <path
            d="M215.87,373.94a.49.49,0,0,1-.4-.2L207,362.38a.5.5,0,0,1,0-.62.52.52,0,0,1,.61-.12c.16.08,4,2,5.6,4.29s3.09,7.16,3.15,7.37a.5.5,0,0,1-.26.59A.59.59,0,0,1,215.87,373.94Zm-6.61-10.17,5.1,6.82a20,20,0,0,0-2-4.07A12.17,12.17,0,0,0,209.26,363.77Z"
            style="fill:#263238"></path>
        <polygon points="214.81 374.82 235.19 397.75 252.38 388.51 233.49 365.48 214.81 374.82" style="fill:#3572EF">
        </polygon>
        <path
            d="M235.19,398.25a.52.52,0,0,1-.38-.17l-20.38-22.93a.49.49,0,0,1-.11-.42.47.47,0,0,1,.26-.35L233.26,365a.52.52,0,0,1,.61.13l18.9,23a.49.49,0,0,1,.1.41.53.53,0,0,1-.25.35l-17.2,9.23A.46.46,0,0,1,235.19,398.25ZM215.61,375l19.69,22.14,16.31-8.76-18.26-22.25Z"
            style="fill:#263238"></path>
        <path d="M215.87,374.19a14.25,14.25,0,0,1,3.08-5.1c2.12-2.12,14.22-6,14.22-6l18.68,23.78.11.95-18.47-22.29Z"
            style="fill:#fff"></path>
        <path
            d="M252,388.27a.5.5,0,0,1-.39-.18l-18.21-22-17.27,8.53a.49.49,0,0,1-.55-.07.5.5,0,0,1-.15-.53,14.82,14.82,0,0,1,3.2-5.29c2.19-2.19,13.93-6,14.43-6.18a.51.51,0,0,1,.54.17l18.68,23.78a.47.47,0,0,1,.11.25l.1,1a.47.47,0,0,1-.3.51A.43.43,0,0,1,252,388.27Zm-19-24.65c-3.56,1.18-12.07,4.21-13.69,5.82a13.11,13.11,0,0,0-2.48,3.72L233.27,365a.5.5,0,0,1,.6.13l6.35,7.67Z"
            style="fill:#263238"></path>
        <path
            d="M240.39,400.08s-3.08-2.44-3.61-3.71-2.66-6.37-3.5-7.32a32.72,32.72,0,0,1-3.93-5.42c-1.06-2-2.23-2.23-2.87-.74s.21,3.61,1.28,5.31,2,3.39,2,3.39-2.76-2.44-4.35-3.92-4.78-5.42-5.52-5.74-1.7.85-.74,3.08,4.56,8.28,6.15,10.83a20,20,0,0,0,6.27,5.84c1.7.95,6,4,6,4Z"
            style="fill:#fff"></path>
        <path
            d="M237.63,406.21a.5.5,0,0,1-.29-.09s-4.35-3.08-6-4a20.33,20.33,0,0,1-6.44-6c-1.69-2.7-5.24-8.67-6.19-10.89-.74-1.73-.44-2.92.1-3.46a1.18,1.18,0,0,1,1.3-.28c.47.21,1.3,1.1,3.08,3.08.94,1.05,1.92,2.13,2.58,2.75s1.27,1.17,2,1.79l-.39-.63c-.84-1.34-2.12-3.87-1.31-5.77.44-1,1-1.25,1.48-1.27s1.41.31,2.29,2a31.53,31.53,0,0,0,3.86,5.31c.61.69,1.78,3.13,3.59,7.46.39.95,2.63,2.87,3.46,3.52a.52.52,0,0,1,.14.62l-2.76,5.62a.51.51,0,0,1-.33.26A.25.25,0,0,1,237.63,406.21Zm-18-23.83a.22.22,0,0,0-.15.08c-.22.22-.48,1,.11,2.35.93,2.17,4.44,8.08,6.12,10.76a19.51,19.51,0,0,0,6.08,5.67c1.39.78,4.43,2.89,5.62,3.72l2.32-4.74c-.84-.69-3-2.51-3.44-3.66-2.29-5.48-3.12-6.85-3.42-7.18a33.1,33.1,0,0,1-4-5.52c-.57-1.08-1.12-1.42-1.37-1.44s-.42.25-.6.67c-.46,1.08,0,2.84,1.24,4.84,1.06,1.69,2,3.4,2,3.42a.49.49,0,0,1-.12.63.51.51,0,0,1-.65,0s-2.78-2.47-4.36-3.94c-.7-.65-1.69-1.75-2.64-2.81a25.48,25.48,0,0,0-2.74-2.83Z"
            style="fill:#263238"></path>
        <path
            d="M289.1,358.93s-4.2,1.29-6.29,8.87-4.52,17.43-4.52,17.43-3.23,1.61-3.87,3.55.64,4.2,1,5.33-2.42,1.61-4.19,3.39a9.35,9.35,0,0,0-2.42,4c-.16.48-1,.32-2.42.32a55.1,55.1,0,0,1-12.27.16c-8.55-.64-12.26-3.55-13.71-2.9s-5.33,7.74-5.81,11.29,0,4.2.8,4.68a9.39,9.39,0,0,0,2.91.65A257.92,257.92,0,0,0,265.54,423c14.85,3.07,17.91,1.45,21.14-1a20.53,20.53,0,0,0,4.52-4.35s5.16-10.65,6.13-12.91,4.36-10.33,7.1-15.49,8.55-11.78,1.13-23.56S289.1,358.93,289.1,358.93Z"
            style="fill:#3572EF"></path>
        <path
            d="M278.23,425.17a65.81,65.81,0,0,1-12.79-1.69,262,262,0,0,1-27.27-7.26,9,9,0,0,1-3.06-.71c-1.1-.65-1.54-1.6-1.05-5.17s4.35-10.91,6.1-11.69c.79-.35,1.81,0,3.51.6a38.75,38.75,0,0,0,10.45,2.26,50,50,0,0,0,10.88,0,13.5,13.5,0,0,1,2.23-.1,4,4,0,0,0,1.1-.05v-.05a9.91,9.91,0,0,1,2.5-4.13,11.44,11.44,0,0,1,2.67-1.84c.66-.36,1.47-.81,1.4-1.06s-.18-.54-.31-.87c-.51-1.3-1.21-3.08-.65-4.75.61-1.83,3.16-3.32,3.92-3.73.37-1.49,2.56-10.34,4.46-17.22,2.06-7.42,6.07-9,6.59-9.2.73-.38,9.76-4.63,17.07,7,6.7,10.62,2.81,17.28,0,22.14-.39.67-.76,1.3-1.09,1.92-2.49,4.69-5.49,11.72-6.77,14.73l-.31.72c-1,2.25-5.93,12.5-6.14,12.93a20.12,20.12,0,0,1-4.67,4.54C284.87,424,282.8,425.17,278.23,425.17Zm-37.36-25.65a.67.67,0,0,0-.3.05c-1.21.53-5,7.42-5.52,10.9s0,3.88.57,4.19a8.76,8.76,0,0,0,2.69.57l.12,0a261.66,261.66,0,0,0,27.21,7.24c15.34,3.17,18,1.21,20.74-.88a20.13,20.13,0,0,0,4.4-4.23c0-.05,5.14-10.61,6.09-12.83l.31-.73c1.29-3,4.3-10.07,6.81-14.8.33-.63.71-1.27,1.1-1.95,2.86-4.9,6.42-11,.05-21.11-7.07-11.22-15.44-6.8-15.8-6.6l-.09,0h0s-4,1.34-6,8.53c-2.07,7.49-4.49,17.31-4.52,17.41a.51.51,0,0,1-.26.33c-.84.42-3.15,1.84-3.62,3.26s.18,2.91.63,4.06c.14.38.27.7.34,1,.3,1-.76,1.6-1.87,2.21a10.34,10.34,0,0,0-2.45,1.67,8.89,8.89,0,0,0-2.26,3.72l0,.12c-.24.73-1,.7-2,.68a11.92,11.92,0,0,0-2.08.09,50.08,50.08,0,0,1-11.07.05,39.47,39.47,0,0,1-10.7-2.32A10,10,0,0,0,240.87,399.52Zm48.23-40.59h0Z"
            style="fill:#263238"></path>
        <path
            d="M275.32,412.66a.5.5,0,0,1-.26-.08c-5.29-3.21-5.35-9.3-5.35-9.55a.5.5,0,0,1,.5-.5h0a.5.5,0,0,1,.5.5c0,.05.07,5.78,4.87,8.7a.5.5,0,0,1,.17.69A.52.52,0,0,1,275.32,412.66Z"
            style="fill:#263238"></path>
        <path
            d="M283.72,399.69a.5.5,0,0,1-.44-.27c-1.36-2.58-4.18-6.67-5.95-6.67a1.2,1.2,0,0,0-.6.09,7.06,7.06,0,0,0,1.63,1.57.5.5,0,0,1-.6.8c-.85-.63-2.24-1.82-1.94-2.74.24-.72,1.19-.72,1.51-.72,2.95,0,6.44,6.47,6.83,7.21a.49.49,0,0,1-.21.67A.46.46,0,0,1,283.72,399.69Z"
            style="fill:#263238"></path>
        <path
            d="M238.62,413.93a.5.5,0,0,1-.5-.46c-.56-7.08,4.54-12.44,4.76-12.67a.5.5,0,0,1,.72.7c0,.05-5,5.27-4.48,11.89a.5.5,0,0,1-.46.54Z"
            style="fill:#263238"></path>
        <path
            d="M128.63,428.59,139,440.73s-6.34,7.21-9.15,10.38-8.1,11.26-10.38,11.43-9.5-4.4-11.79-5.63S96.6,449.52,94,443.54,89,430.7,92.56,431.05s7.92,4.93,13.19,6.51,4.75,1.76,9.15-.18S128.63,428.59,128.63,428.59Z"
            style="fill:#7d7d7d"></path>
        <path
            d="M119.35,463.05c-1.9,0-6-2.27-10-4.61-.79-.45-1.45-.84-1.91-1.09-2.29-1.23-11.26-7.52-13.94-13.61-4.47-10.12-3.19-11.88-2.77-12.46a1.91,1.91,0,0,1,1.87-.73c1.9.19,3.93,1.47,6.27,2.94a29.59,29.59,0,0,0,7,3.59l1.33.41c3.65,1.11,3.65,1.12,7.29-.48l.18-.09c4.3-1.88,13.54-8.67,13.63-8.74a.51.51,0,0,1,.68.08l10.38,12.14a.5.5,0,0,1,0,.66s-6.33,7.21-9.15,10.38c-.83.93-1.89,2.32-3,3.78-3.44,4.5-6,7.69-7.71,7.82Zm-27-31.51a.86.86,0,0,0-.76.32c-.41.57-1,2.82,2.87,11.48,2.58,5.85,11.28,11.93,13.51,13.13.46.25,1.13.64,1.93,1.1,2.71,1.58,7.7,4.48,9.47,4.48h.11c1.38-.1,4.62-4.33,7-7.42,1.14-1.49,2.21-2.89,3.06-3.85,2.46-2.76,7.6-8.61,8.86-10l-9.79-11.46c-1.81,1.32-9.5,6.84-13.45,8.58l-.18.08c-3.9,1.72-4,1.73-8,.52l-1.33-.4a30.68,30.68,0,0,1-7.27-3.7c-2.23-1.41-4.16-2.63-5.83-2.79Z"
            style="fill:#263238"></path>
        <path
            d="M112.43,441.56a4.93,4.93,0,0,1-2.51-.76.49.49,0,0,1-.19-.68.5.5,0,0,1,.68-.19,3.65,3.65,0,0,0,2.83.54.51.51,0,0,1,.59.39.5.5,0,0,1-.39.59A4.65,4.65,0,0,1,112.43,441.56Z"
            style="fill:#263238"></path>
        <path
            d="M115.37,440.72a.48.48,0,0,1-.44-.28.5.5,0,0,1,.22-.67,23.52,23.52,0,0,0,2.65-1.56c4.57-3,10.54-7.28,10.6-7.33a.52.52,0,0,1,.7.12.5.5,0,0,1-.12.7c-.06,0-6,4.29-10.63,7.34a23.27,23.27,0,0,1-2.76,1.63A.54.54,0,0,1,115.37,440.72Z"
            style="fill:#263238"></path>
        <path d="M134.29,443.37a.45.45,0,0,1-.34-.14l-1.79-1.7a.5.5,0,0,1,.69-.73l1.79,1.71a.5.5,0,0,1-.35.86Z"
            style="fill:#263238"></path>
        <path d="M130.61,439.85a.49.49,0,0,1-.34-.14l-5.4-5.16a.5.5,0,0,1,.7-.72L131,439a.5.5,0,0,1-.35.86Z"
            style="fill:#263238"></path>
        <path
            d="M121.17,461.33a.51.51,0,0,1-.17,0s-.81-.29-2.27-.88a.5.5,0,0,1,.37-.93c1.43.58,2.22.86,2.23.86a.5.5,0,0,1-.16,1Z"
            style="fill:#263238"></path>
        <path
            d="M117.51,459.87a.48.48,0,0,1-.2,0c-2.44-1.05-5-2.25-7.57-3.58-6.45-3.32-10.38-6.72-13.13-11.39-2.52-4.25-4.23-11-4.3-11.32a.5.5,0,0,1,.36-.61.51.51,0,0,1,.61.36c0,.07,1.75,6.93,4.19,11.07,2.65,4.48,6.46,7.78,12.73,11,2.56,1.32,5.09,2.51,7.51,3.55a.5.5,0,0,1,.26.65A.51.51,0,0,1,117.51,459.87Z"
            style="fill:#263238"></path>
    </g>
</svg>
